# xmcd CD database file
#
# Track frame offsets:
#	150
#	9594
#	25728
#	32737
#	51769
#	66397
#	74254
#	84944
#	95001
#	107572
#	109522
#	110951
#	111945
#	115243
#	116929
#	119379
#	122824
#	143098
#	157207
#	160781
#	182730
#	196854
#	202568
#	218612
#	249290
#
# Disc length: 3331 seconds
#
# Revision: 0
# Processed by: cddbd v1.5.2PL0 Copyright (c) Steve Scherf et al.
# Submitted via: CDex 1.70beta2
#
DISCID=5d0d0119
DTITLE=John Zorn - Naked City
DYEAR=1900
DGENRE=Jazz
TTITLE0=Batman
TTITLE1=The Sicilian Clan
TTITLE2=You will be shot
TTITLE3=Latin Quartet
TTITLE4=A shot in the dark
TTITLE5=Reanimator
TTITLE6=Snagglepuss
TTITLE7=I want to live
TTITLE8=Lonely woman
TTITLE9=Igneous elaculation
TTITLE10=Blood duster
TTITLE11=Hammerhead
TTITLE12=Demon Sanctuary
TTITLE13=Obeah man
TTITLE14=Ujaku
TTITLE15=Speedball
TTITLE16=Chinatown
TTITLE17=Punk China Doll
TTITLE18=N.Y. Flat top box
TTITLE19=Saigon pickup
TTITLE20=The James Bond theme
TTITLE21=Den of sins
TTITLE22=Graveyard shift
TTITLE23=Inside straight
TTITLE24=Dupa
EXTD=
EXTT0=
EXTT1=
EXTT2=
EXTT3=
EXTT4=
EXTT5=
EXTT6=
EXTT7=
EXTT8=
EXTT9=
EXTT10=
EXTT11=
EXTT12=
EXTT13=
EXTT14=
EXTT15=
EXTT16=
EXTT17=
EXTT18=
EXTT19=
EXTT20=
EXTT21=
EXTT22=
EXTT23=
EXTT24=
PLAYORDER=
